<svg xmlns="http://www.w3.org/2000/svg" fill="none" viewBox="0 0 24 24" id="Tauri--Streamline-Svg-Logos" height="24" width="24">
  <desc>
    Tauri Streamline Icon: https://streamlinehq.com
  </desc>
  <path fill="#ffc131" d="M16.115475 8.80225c0 1.235075 -1.001225 2.236325 -2.236325 2.236325 -1.2351 0 -2.236325 -1.00125 -2.236325 -2.236325 0 -1.2351 1.001225 -2.236325 2.236325 -2.236325 1.2351 0 2.236325 1.001225 2.236325 2.236325Z" stroke-width="0.25"></path>
  <path fill="#24c8db" d="M10.118175 12.969975c-1.2351 0 -2.236325 1.001225 -2.236325 2.236325 0 1.2351 1.001225 2.236325 2.236325 2.236325 1.235075 0 2.236325 -1.001225 2.236325 -2.236325 0 -1.2351 -1.00125 -2.236325 -2.236325 -2.236325Z" stroke-width="0.25"></path>
  <path fill="#ffc131" d="M18.514625 15.96855c-0.898775 0.581025 -1.898775 0.987925 -2.9479 1.199475 0.30405 -0.866825 0.4049 -1.791925 0.2948 -2.703925 2.441275 -0.853425 4.06055 -3.17565 4.01745 -5.761425 -0.043125 -2.5858 -1.738925 -4.85275 -4.2073 -5.6243 -2.4684 -0.7715725 -5.15335 0.126025 -6.66145 2.22695 -1.13785 0.128025 -2.245125 0.451275 -3.273175 0.955525C6.853975 2.657225 10.20345 0.21372125 13.976025 0.2504075c3.772575 0.0366875 7.073925 2.5448675 8.12055 6.1695425 1.0466 3.624675 -0.4096 7.506575 -3.58195 9.5486ZM5.8387 7.816125l2.094025 0.254125c0.0475 -0.404375 0.13605 -0.802875 0.2643 -1.189325 -0.8283 0.19255 -1.623175 0.507775 -2.358325 0.9352Z" stroke-width="0.25"></path>
  <path fill="#24c8db" d="M5.472675 8.039475c0.904175 -0.58695 1.911325 -0.9974 2.968225 -1.20965 -0.3197 0.8667 -0.434525 1.795625 -0.33545 2.7141 -2.43265 0.865425 -4.03835 3.19065 -3.985975 5.772125 0.05235 2.58145 1.751025 4.839675 4.21675 5.605725 2.465725 0.766075 5.145 -0.13195 6.651 -2.22925 1.13725 -0.124825 2.2445 -0.444625 3.273175 -0.94535 -1.11965 3.599725 -4.46745 6.0392 -8.2371 6.00225 -3.76965 -0.036975 -7.068975 -2.541625 -8.1178475 -6.1626C0.8565825 13.96585 2.3064075 10.085525 5.472675 8.039475Z" stroke-width="0.25"></path>
</svg>